<?xml version="1.0" standalone="no"?>
 <!DOCTYPE svg PUBLIC "-//W3C//DTD SVG 1.1//EN" 
 "http://www.w3.org/Graphics/SVG/1.1/DTD/svg11.dtd"> 
<svg
  xmlns:svg="http://www.w3.org/2000/svg"
  xmlns="http://www.w3.org/2000/svg"
  xmlns:xlink="http://www.w3.org/1999/xlink"
  version="1.1"
  width="15.240000cm" height="11.430000cm" viewBox="0 0 60000 45000">
<title>SVG Picture created as schema.svg date 2022/02/09 15:06:15 </title>
  <desc>Picture generated by Eeschema-SVG </desc>
<g style="fill:#000000; fill-opacity:1.000000;stroke:#000000; stroke-opacity:1.000000;
stroke-linecap:round; stroke-linejoin:round;"
 transform="translate(0 0) scale(1 1)">
</g>
<g style="fill:#840000; fill-opacity:0.0; 
stroke:#840000; stroke-width:0.000000; stroke-opacity:1; 
stroke-linecap:round; stroke-linejoin:round;">
</g>
<g style="fill:#840000; fill-opacity:0.0; 
stroke:#840000; stroke-width:60.000000; stroke-opacity:1; 
stroke-linecap:round; stroke-linejoin:round;">
<rect x="12755.905512" y="27677.165354" width="42519.685039" height="12598.425197" rx="0.000000" />
<rect x="3937.007874" y="3937.007874" width="52125.984252" height="37125.984252" rx="0.000000" />
<rect x="4724.409449" y="4724.409449" width="50551.181102" height="35551.181102" rx="0.000000" />
<path d="M23622 4724
L23622 3937
" />
<path d="M43307 4724
L43307 3937
" />
<text x="13779.527559" y="4586.614173"
textLength="617.440945" font-size="682.401575" lengthAdjust="spacingAndGlyphs"
text-anchor="start" opacity="0">1</text>
<g class="stroked-text"><desc>1</desc>
<path d="M14199 4562
L13907 4562
" />
<path d="M14053 4562
L14053 4050
L14004 4123
L13955 4172
L13907 4196
" />
</g><text x="33464.566929" y="4586.614173"
textLength="547.440945" font-size="682.401575" lengthAdjust="spacingAndGlyphs"
text-anchor="start" opacity="0">2</text>
<g class="stroked-text"><desc>2</desc>
<path d="M33592 4099
L33616 4074
L33665 4050
L33787 4050
L33835 4074
L33860 4099
L33884 4147
L33884 4196
L33860 4269
L33567 4562
L33884 4562
" />
</g><text x="53149.606299" y="4586.614173"
textLength="547.440945" font-size="682.401575" lengthAdjust="spacingAndGlyphs"
text-anchor="start" opacity="0">3</text>
<g class="stroked-text"><desc>3</desc>
<path d="M53252 4050
L53569 4050
L53398 4245
L53472 4245
L53520 4269
L53545 4294
L53569 4342
L53569 4464
L53545 4513
L53520 4537
L53472 4562
L53325 4562
L53277 4537
L53252 4513
" />
</g><path d="M23622 40275
L23622 41062
" />
<path d="M43307 40275
L43307 41062
" />
<text x="13779.527559" y="40925.196850"
textLength="547.440945" font-size="682.401575" lengthAdjust="spacingAndGlyphs"
text-anchor="start" opacity="0">1</text>
<g class="stroked-text"><desc>1</desc>
<path d="M14199 40900
L13907 40900
" />
<path d="M14053 40900
L14053 40388
L14004 40462
L13955 40510
L13907 40535
" />
</g><text x="33464.566929" y="40925.196850"
textLength="547.440945" font-size="682.401575" lengthAdjust="spacingAndGlyphs"
text-anchor="start" opacity="0">2</text>
<g class="stroked-text"><desc>2</desc>
<path d="M33592 40437
L33616 40413
L33665 40388
L33787 40388
L33835 40413
L33860 40437
L33884 40486
L33884 40535
L33860 40608
L33567 40900
L33884 40900
" />
</g><text x="53149.606299" y="40925.196850"
textLength="547.440945" font-size="682.401575" lengthAdjust="spacingAndGlyphs"
text-anchor="start" opacity="0">3</text>
<g class="stroked-text"><desc>3</desc>
<path d="M53252 40388
L53569 40388
L53398 40583
L53472 40583
L53520 40608
L53545 40632
L53569 40681
L53569 40803
L53545 40852
L53520 40876
L53472 40900
L53325 40900
L53277 40876
L53252 40852
" />
</g><path d="M3937 23622
L4724 23622
" />
<text x="4330.708661" y="14035.433071"
textLength="498.700787" font-size="682.401575" lengthAdjust="spacingAndGlyphs"
text-anchor="middle" opacity="0">A</text>
<g class="stroked-text"><desc>A</desc>
<path d="M4208 13864
L4452 13864
" />
<path d="M4160 14011
L4330 13499
L4501 14011
" />
</g><text x="4330.708661" y="33720.472441"
textLength="571.811024" font-size="682.401575" lengthAdjust="spacingAndGlyphs"
text-anchor="middle" opacity="0">B</text>
<g class="stroked-text"><desc>B</desc>
<path d="M4367 33427
L4440 33452
L4464 33476
L4489 33525
L4489 33598
L4464 33647
L4440 33671
L4391 33696
L4196 33696
L4196 33184
L4367 33184
L4415 33208
L4440 33233
L4464 33281
L4464 33330
L4440 33379
L4415 33403
L4367 33427
L4196 33427
" />
</g><path d="M56062 23622
L55275 23622
" />
<text x="55669.291339" y="14035.433071"
textLength="498.700787" font-size="682.401575" lengthAdjust="spacingAndGlyphs"
text-anchor="middle" opacity="0">A</text>
<g class="stroked-text"><desc>A</desc>
<path d="M55547 13864
L55791 13864
" />
<path d="M55498 14011
L55669 13499
L55839 14011
" />
</g><text x="55669.291339" y="33720.472441"
textLength="571.811024" font-size="682.401575" lengthAdjust="spacingAndGlyphs"
text-anchor="middle" opacity="0">B</text>
<g class="stroked-text"><desc>B</desc>
<path d="M55705 33427
L55778 33452
L55803 33476
L55827 33525
L55827 33598
L55803 33647
L55778 33671
L55730 33696
L55535 33696
L55535 33184
L55705 33184
L55754 33208
L55778 33233
L55803 33281
L55803 33330
L55778 33379
L55754 33403
L55705 33427
L55535 33427
" />
</g><text x="21811.023622" y="38641.732283"
textLength="8721.417323" font-size="787.401575" lengthAdjust="spacingAndGlyphs"
text-anchor="start" opacity="0">Date: 2022-02-09</text>
<g class="stroked-text"><desc>Date: 2022-02-09</desc>
<path d="M21981 38613
L21981 38023
L22122 38023
L22206 38051
L22262 38107
L22290 38163
L22319 38276
L22319 38360
L22290 38472
L22262 38529
L22206 38585
L22122 38613
L21981 38613
" />
<path d="M22825 38613
L22825 38304
L22797 38248
L22740 38219
L22628 38219
L22572 38248
" />
<path d="M22825 38585
L22769 38613
L22628 38613
L22572 38585
L22544 38529
L22544 38472
L22572 38416
L22628 38388
L22769 38388
L22825 38360
" />
<path d="M23022 38219
L23247 38219
" />
<path d="M23106 38023
L23106 38529
L23134 38585
L23190 38613
L23247 38613
" />
<path d="M23668 38585
L23612 38613
L23500 38613
L23443 38585
L23415 38529
L23415 38304
L23443 38248
L23500 38219
L23612 38219
L23668 38248
L23697 38304
L23697 38360
L23415 38416
" />
<path d="M23950 38557
L23978 38585
L23950 38613
L23922 38585
L23950 38557
L23950 38613
" />
<path d="M23950 38248
L23978 38276
L23950 38304
L23922 38276
L23950 38248
L23950 38304
" />
<path d="M24653 38079
L24681 38051
L24737 38023
L24878 38023
L24934 38051
L24962 38079
L24990 38135
L24990 38191
L24962 38276
L24625 38613
L24990 38613
" />
<path d="M25356 38023
L25412 38023
L25468 38051
L25496 38079
L25524 38135
L25553 38248
L25553 38388
L25524 38501
L25496 38557
L25468 38585
L25412 38613
L25356 38613
L25299 38585
L25271 38557
L25243 38501
L25215 38388
L25215 38248
L25243 38135
L25271 38079
L25299 38051
L25356 38023
" />
<path d="M25778 38079
L25806 38051
L25862 38023
L26002 38023
L26059 38051
L26087 38079
L26115 38135
L26115 38191
L26087 38276
L25749 38613
L26115 38613
" />
<path d="M26340 38079
L26368 38051
L26424 38023
L26565 38023
L26621 38051
L26649 38079
L26677 38135
L26677 38191
L26649 38276
L26312 38613
L26677 38613
" />
<path d="M26930 38388
L27380 38388
" />
<path d="M27774 38023
L27830 38023
L27887 38051
L27915 38079
L27943 38135
L27971 38248
L27971 38388
L27943 38501
L27915 38557
L27887 38585
L27830 38613
L27774 38613
L27718 38585
L27690 38557
L27662 38501
L27634 38388
L27634 38248
L27662 38135
L27690 38079
L27718 38051
L27774 38023
" />
<path d="M28196 38079
L28224 38051
L28280 38023
L28421 38023
L28477 38051
L28505 38079
L28533 38135
L28533 38191
L28505 38276
L28168 38613
L28533 38613
" />
<path d="M28787 38388
L29236 38388
" />
<path d="M29630 38023
L29686 38023
L29743 38051
L29771 38079
L29799 38135
L29827 38248
L29827 38388
L29799 38501
L29771 38557
L29743 38585
L29686 38613
L29630 38613
L29574 38585
L29546 38557
L29518 38501
L29490 38388
L29490 38248
L29518 38135
L29546 38079
L29574 38051
L29630 38023
" />
<path d="M30108 38613
L30221 38613
L30277 38585
L30305 38557
L30361 38472
L30389 38360
L30389 38135
L30361 38079
L30333 38051
L30277 38023
L30164 38023
L30108 38051
L30080 38079
L30052 38135
L30052 38276
L30080 38332
L30108 38360
L30164 38388
L30277 38388
L30333 38360
L30361 38332
L30389 38276
" />
</g><path d="M12755 38897
L55275 38897
" />
<text x="13149.606299" y="39744.094488"
textLength="14261.338583" font-size="787.401575" lengthAdjust="spacingAndGlyphs"
text-anchor="start" opacity="0">KiCad E.D.A.  eeschema (6.0.1)</text>
<g class="stroked-text"><desc>KiCad E.D.A.  eeschema (6.0.1)</desc>
<path d="M13320 39715
L13320 39125
" />
<path d="M13657 39715
L13404 39378
" />
<path d="M13657 39125
L13320 39462
" />
<path d="M13910 39715
L13910 39322
" />
<path d="M13910 39125
L13882 39153
L13910 39181
L13938 39153
L13910 39125
L13910 39181
" />
<path d="M14529 39659
L14501 39687
L14416 39715
L14360 39715
L14276 39687
L14220 39631
L14191 39575
L14163 39462
L14163 39378
L14191 39266
L14220 39209
L14276 39153
L14360 39125
L14416 39125
L14501 39153
L14529 39181
" />
<path d="M15035 39715
L15035 39406
L15007 39350
L14951 39322
L14838 39322
L14782 39350
" />
<path d="M15035 39687
L14979 39715
L14838 39715
L14782 39687
L14754 39631
L14754 39575
L14782 39519
L14838 39490
L14979 39490
L15035 39462
" />
<path d="M15569 39715
L15569 39125
" />
<path d="M15569 39687
L15513 39715
L15401 39715
L15344 39687
L15316 39659
L15288 39603
L15288 39434
L15316 39378
L15344 39350
L15401 39322
L15513 39322
L15569 39350
" />
<path d="M16301 39406
L16497 39406
" />
<path d="M16582 39715
L16301 39715
L16301 39125
L16582 39125
" />
<path d="M16835 39659
L16863 39687
L16835 39715
L16807 39687
L16835 39659
L16835 39715
" />
<path d="M17116 39715
L17116 39125
L17257 39125
L17341 39153
L17397 39209
L17425 39266
L17454 39378
L17454 39462
L17425 39575
L17397 39631
L17341 39687
L17257 39715
L17116 39715
" />
<path d="M17707 39659
L17735 39687
L17707 39715
L17679 39687
L17707 39659
L17707 39715
" />
<path d="M17960 39547
L18241 39547
" />
<path d="M17904 39715
L18100 39125
L18297 39715
" />
<path d="M18494 39659
L18522 39687
L18494 39715
L18466 39687
L18494 39659
L18494 39715
" />
<path d="M19900 39687
L19844 39715
L19731 39715
L19675 39687
L19647 39631
L19647 39406
L19675 39350
L19731 39322
L19844 39322
L19900 39350
L19928 39406
L19928 39462
L19647 39519
" />
<path d="M20406 39687
L20350 39715
L20238 39715
L20181 39687
L20153 39631
L20153 39406
L20181 39350
L20238 39322
L20350 39322
L20406 39350
L20434 39406
L20434 39462
L20153 39519
" />
<path d="M20659 39687
L20716 39715
L20828 39715
L20884 39687
L20912 39631
L20912 39603
L20884 39547
L20828 39519
L20744 39519
L20688 39490
L20659 39434
L20659 39406
L20688 39350
L20744 39322
L20828 39322
L20884 39350
" />
<path d="M21419 39687
L21362 39715
L21250 39715
L21194 39687
L21166 39659
L21137 39603
L21137 39434
L21166 39378
L21194 39350
L21250 39322
L21362 39322
L21419 39350
" />
<path d="M21672 39715
L21672 39125
" />
<path d="M21925 39715
L21925 39406
L21897 39350
L21841 39322
L21756 39322
L21700 39350
L21672 39378
" />
<path d="M22431 39687
L22375 39715
L22262 39715
L22206 39687
L22178 39631
L22178 39406
L22206 39350
L22262 39322
L22375 39322
L22431 39350
L22459 39406
L22459 39462
L22178 39519
" />
<path d="M22712 39715
L22712 39322
" />
<path d="M22712 39378
L22740 39350
L22797 39322
L22881 39322
L22937 39350
L22965 39406
L22965 39715
" />
<path d="M22965 39406
L22993 39350
L23050 39322
L23134 39322
L23190 39350
L23218 39406
L23218 39715
" />
<path d="M23753 39715
L23753 39406
L23725 39350
L23668 39322
L23556 39322
L23500 39350
" />
<path d="M23753 39687
L23697 39715
L23556 39715
L23500 39687
L23472 39631
L23472 39575
L23500 39519
L23556 39490
L23697 39490
L23753 39462
" />
<path d="M24653 39940
L24625 39912
L24568 39828
L24540 39772
L24512 39687
L24484 39547
L24484 39434
L24512 39294
L24540 39209
L24568 39153
L24625 39069
L24653 39041
" />
<path d="M25131 39125
L25018 39125
L24962 39153
L24934 39181
L24878 39266
L24850 39378
L24850 39603
L24878 39659
L24906 39687
L24962 39715
L25074 39715
L25131 39687
L25159 39659
L25187 39603
L25187 39462
L25159 39406
L25131 39378
L25074 39350
L24962 39350
L24906 39378
L24878 39406
L24850 39462
" />
<path d="M25440 39659
L25468 39687
L25440 39715
L25412 39687
L25440 39659
L25440 39715
" />
<path d="M25834 39125
L25890 39125
L25946 39153
L25974 39181
L26002 39237
L26031 39350
L26031 39490
L26002 39603
L25974 39659
L25946 39687
L25890 39715
L25834 39715
L25778 39687
L25749 39659
L25721 39603
L25693 39490
L25693 39350
L25721 39237
L25749 39181
L25778 39153
L25834 39125
" />
<path d="M26284 39659
L26312 39687
L26284 39715
L26256 39687
L26284 39659
L26284 39715
" />
<path d="M26874 39715
L26537 39715
" />
<path d="M26706 39715
L26706 39125
L26649 39209
L26593 39266
L26537 39294
" />
<path d="M27071 39940
L27099 39912
L27155 39828
L27184 39772
L27212 39687
L27240 39547
L27240 39434
L27212 39294
L27184 39209
L27155 39153
L27099 39069
L27071 39041
" />
</g><path d="M12755 37716
L55275 37716
" />
</g>
<g style="fill:#840000; fill-opacity:0.0; 
stroke:#840000; stroke-width:118.110236; stroke-opacity:1; 
stroke-linecap:round; stroke-linejoin:round;">
<text x="46614.173228" y="38641.732283"
textLength="2337.834646" font-size="787.401575" lengthAdjust="spacingAndGlyphs"
text-anchor="start" opacity="0">Rev: </text>
<g class="stroked-text"><desc>Rev: </desc>
<path d="M47168 38613
L46972 38332
" />
<path d="M46831 38613
L46831 38023
L47056 38023
L47112 38051
L47140 38079
L47168 38135
L47168 38219
L47140 38276
L47112 38304
L47056 38332
L46831 38332
" />
<path d="M47647 38585
L47590 38613
L47478 38613
L47422 38585
L47393 38529
L47393 38304
L47422 38248
L47478 38219
L47590 38219
L47647 38248
L47675 38304
L47675 38360
L47393 38416
" />
<path d="M47872 38219
L48012 38613
L48153 38219
" />
<path d="M48378 38557
L48406 38585
L48378 38613
L48350 38585
L48378 38557
L48378 38613
" />
<path d="M48378 38248
L48406 38276
L48378 38304
L48350 38276
L48378 38248
L48378 38304
" />
</g></g>
<g style="fill:#840000; fill-opacity:0.0; 
stroke:#840000; stroke-width:60.000000; stroke-opacity:1; 
stroke-linecap:round; stroke-linejoin:round;">
<text x="13149.606299" y="38641.732283"
textLength="4681.102362" font-size="787.401575" lengthAdjust="spacingAndGlyphs"
text-anchor="start" opacity="0">Size: User</text>
<g class="stroked-text"><desc>Size: User</desc>
<path d="M13292 38585
L13376 38613
L13517 38613
L13573 38585
L13601 38557
L13629 38501
L13629 38444
L13601 38388
L13573 38360
L13517 38332
L13404 38304
L13348 38276
L13320 38248
L13292 38191
L13292 38135
L13320 38079
L13348 38051
L13404 38023
L13545 38023
L13629 38051
" />
<path d="M13882 38613
L13882 38219
" />
<path d="M13882 38023
L13854 38051
L13882 38079
L13910 38051
L13882 38023
L13882 38079
" />
<path d="M14107 38219
L14416 38219
L14107 38613
L14416 38613
" />
<path d="M14866 38585
L14810 38613
L14698 38613
L14641 38585
L14613 38529
L14613 38304
L14641 38248
L14698 38219
L14810 38219
L14866 38248
L14895 38304
L14895 38360
L14613 38416
" />
<path d="M15148 38557
L15176 38585
L15148 38613
L15119 38585
L15148 38557
L15148 38613
" />
<path d="M15148 38248
L15176 38276
L15148 38304
L15119 38276
L15148 38248
L15148 38304
" />
<path d="M15879 38023
L15879 38501
L15907 38557
L15935 38585
L15991 38613
L16104 38613
L16160 38585
L16188 38557
L16216 38501
L16216 38023
" />
<path d="M16469 38585
L16526 38613
L16638 38613
L16694 38585
L16722 38529
L16722 38501
L16694 38444
L16638 38416
L16554 38416
L16497 38388
L16469 38332
L16469 38304
L16497 38248
L16554 38219
L16638 38219
L16694 38248
" />
<path d="M17200 38585
L17144 38613
L17032 38613
L16975 38585
L16947 38529
L16947 38304
L16975 38248
L17032 38219
L17144 38219
L17200 38248
L17229 38304
L17229 38360
L16947 38416
" />
<path d="M17482 38613
L17482 38219
" />
<path d="M17482 38332
L17510 38276
L17538 38248
L17594 38219
L17650 38219
" />
</g><text x="46614.173228" y="39744.094488"
textLength="3350.196850" font-size="787.401575" lengthAdjust="spacingAndGlyphs"
text-anchor="start" opacity="0">Id: 1/1</text>
<g class="stroked-text"><desc>Id: 1/1</desc>
<path d="M46784 39715
L46784 39125
" />
<path d="M47319 39715
L47319 39125
" />
<path d="M47319 39687
L47262 39715
L47150 39715
L47094 39687
L47065 39659
L47037 39603
L47037 39434
L47065 39378
L47094 39350
L47150 39322
L47262 39322
L47319 39350
" />
<path d="M47600 39659
L47628 39687
L47600 39715
L47572 39687
L47600 39659
L47600 39715
" />
<path d="M47600 39350
L47628 39378
L47600 39406
L47572 39378
L47600 39350
L47600 39406
" />
<path d="M48640 39715
L48303 39715
" />
<path d="M48472 39715
L48472 39125
L48415 39209
L48359 39266
L48303 39294
" />
<path d="M49315 39097
L48809 39856
" />
<path d="M49821 39715
L49484 39715
" />
<path d="M49653 39715
L49653 39125
L49596 39209
L49540 39266
L49484 39294
" />
</g><path d="M12755 36141
L55275 36141
" />
</g>
<g style="fill:#840000; fill-opacity:0.0; 
stroke:#840000; stroke-width:157.480315; stroke-opacity:1; 
stroke-linecap:round; stroke-linejoin:round;">
<text x="13149.606299" y="37244.094488"
textLength="22790.629921" font-size="1049.842520" lengthAdjust="spacingAndGlyphs"
text-anchor="start" opacity="0">Title: ESP32-CAM with Motion Sensor</text>
<g class="stroked-text"><desc>Title: ESP32-CAM with Motion Sensor</desc>
<path d="M13430 36419
L13880 36419
" />
<path d="M13556 37206
L13655 36419
" />
<path d="M14044 37206
L14109 36681
" />
<path d="M14142 36419
L14100 36456
L14133 36494
L14175 36456
L14142 36419
L14133 36494
" />
<path d="M14372 36681
L14672 36681
" />
<path d="M14517 36419
L14433 37094
L14461 37169
L14531 37206
L14606 37206
" />
<path d="M14981 37206
L14911 37169
L14882 37094
L14967 36419
" />
<path d="M15586 37169
L15506 37206
L15356 37206
L15286 37169
L15257 37094
L15295 36794
L15342 36719
L15422 36681
L15571 36681
L15642 36719
L15670 36794
L15661 36869
L15276 36944
" />
<path d="M15965 37131
L15998 37169
L15956 37206
L15923 37169
L15965 37131
L15956 37206
" />
<path d="M16017 36719
L16050 36756
L16007 36794
L15975 36756
L16017 36719
L16007 36794
" />
<path d="M16982 36794
L17245 36794
" />
<path d="M17306 37206
L16931 37206
L17029 36419
L17404 36419
" />
<path d="M17610 37169
L17718 37206
L17906 37206
L17985 37169
L18027 37131
L18074 37056
L18084 36981
L18056 36906
L18023 36869
L17952 36831
L17807 36794
L17737 36756
L17704 36719
L17676 36644
L17685 36569
L17732 36494
L17774 36456
L17854 36419
L18041 36419
L18149 36456
" />
<path d="M18393 37206
L18491 36419
L18791 36419
L18862 36456
L18895 36494
L18923 36569
L18909 36681
L18862 36756
L18820 36794
L18740 36831
L18440 36831
" />
<path d="M19204 36419
L19691 36419
L19391 36719
L19504 36719
L19574 36756
L19607 36794
L19635 36869
L19612 37056
L19565 37131
L19523 37169
L19443 37206
L19218 37206
L19148 37169
L19115 37131
" />
<path d="M19982 36494
L20024 36456
L20104 36419
L20291 36419
L20362 36456
L20394 36494
L20422 36569
L20413 36644
L20362 36756
L19855 37206
L20343 37206
" />
<path d="M20718 36906
L21318 36906
" />
<path d="M22114 37131
L22072 37169
L21955 37206
L21880 37206
L21772 37169
L21707 37094
L21679 37019
L21660 36869
L21674 36756
L21730 36606
L21777 36531
L21861 36456
L21978 36419
L22053 36419
L22161 36456
L22194 36494
" />
<path d="M22433 36981
L22808 36981
" />
<path d="M22330 37206
L22691 36419
L22855 37206
" />
<path d="M23117 37206
L23216 36419
L23408 36981
L23741 36419
L23642 37206
" />
<path d="M24608 36681
L24692 37206
L24889 36831
L24992 37206
L25208 36681
" />
<path d="M25442 37206
L25508 36681
" />
<path d="M25541 36419
L25498 36456
L25531 36494
L25573 36456
L25541 36419
L25531 36494
" />
<path d="M25770 36681
L26070 36681
" />
<path d="M25915 36419
L25831 37094
L25859 37169
L25930 37206
L26005 37206
" />
<path d="M26267 37206
L26365 36419
" />
<path d="M26604 37206
L26656 36794
L26628 36719
L26558 36681
L26445 36681
L26365 36719
L26323 36756
" />
<path d="M27579 37206
L27678 36419
L27870 36981
L28203 36419
L28104 37206
" />
<path d="M28592 37206
L28521 37169
L28489 37131
L28460 37056
L28489 36831
L28535 36756
L28578 36719
L28657 36681
L28770 36681
L28840 36719
L28873 36756
L28901 36831
L28873 37056
L28826 37131
L28784 37169
L28704 37206
L28592 37206
" />
<path d="M29145 36681
L29445 36681
" />
<path d="M29290 36419
L29206 37094
L29234 37169
L29304 37206
L29379 37206
" />
<path d="M29642 37206
L29707 36681
" />
<path d="M29740 36419
L29698 36456
L29731 36494
L29773 36456
L29740 36419
L29731 36494
" />
<path d="M30129 37206
L30059 37169
L30026 37131
L29998 37056
L30026 36831
L30073 36756
L30115 36719
L30195 36681
L30307 36681
L30377 36719
L30410 36756
L30438 36831
L30410 37056
L30363 37131
L30321 37169
L30242 37206
L30129 37206
" />
<path d="M30795 36681
L30729 37206
" />
<path d="M30785 36756
L30827 36719
L30907 36681
L31020 36681
L31090 36719
L31118 36794
L31066 37206
" />
<path d="M32008 37169
L32116 37206
L32304 37206
L32383 37169
L32426 37131
L32472 37056
L32482 36981
L32454 36906
L32421 36869
L32351 36831
L32205 36794
L32135 36756
L32102 36719
L32074 36644
L32083 36569
L32130 36494
L32173 36456
L32252 36419
L32440 36419
L32547 36456
" />
<path d="M33096 37169
L33016 37206
L32866 37206
L32796 37169
L32768 37094
L32805 36794
L32852 36719
L32932 36681
L33082 36681
L33152 36719
L33180 36794
L33171 36869
L32787 36944
" />
<path d="M33532 36681
L33466 37206
" />
<path d="M33522 36756
L33565 36719
L33644 36681
L33757 36681
L33827 36719
L33855 36794
L33804 37206
" />
<path d="M34146 37169
L34216 37206
L34366 37206
L34446 37169
L34493 37094
L34497 37056
L34469 36981
L34399 36944
L34286 36944
L34216 36906
L34188 36831
L34193 36794
L34239 36719
L34319 36681
L34432 36681
L34502 36719
" />
<path d="M34928 37206
L34858 37169
L34825 37131
L34797 37056
L34825 36831
L34872 36756
L34914 36719
L34994 36681
L35107 36681
L35177 36719
L35210 36756
L35238 36831
L35210 37056
L35163 37131
L35121 37169
L35041 37206
L34928 37206
" />
<path d="M35528 37206
L35594 36681
" />
<path d="M35575 36831
L35622 36756
L35664 36719
L35744 36681
L35819 36681
" />
</g></g>
<g style="fill:#840000; fill-opacity:0.0; 
stroke:#840000; stroke-width:60.000000; stroke-opacity:1; 
stroke-linecap:round; stroke-linejoin:round;">
<text x="13149.606299" y="35728.346457"
textLength="10469.055118" font-size="787.401575" lengthAdjust="spacingAndGlyphs"
text-anchor="start" opacity="0">File: schema.kicad_sch</text>
<g class="stroked-text"><desc>File: schema.kicad_sch</desc>
<path d="M13517 35390
L13320 35390
" />
<path d="M13320 35700
L13320 35109
L13601 35109
" />
<path d="M13826 35700
L13826 35306
" />
<path d="M13826 35109
L13798 35137
L13826 35165
L13854 35137
L13826 35109
L13826 35165
" />
<path d="M14191 35700
L14135 35672
L14107 35615
L14107 35109
" />
<path d="M14641 35672
L14585 35700
L14473 35700
L14416 35672
L14388 35615
L14388 35390
L14416 35334
L14473 35306
L14585 35306
L14641 35334
L14670 35390
L14670 35447
L14388 35503
" />
<path d="M14923 35643
L14951 35672
L14923 35700
L14895 35672
L14923 35643
L14923 35700
" />
<path d="M14923 35334
L14951 35362
L14923 35390
L14895 35362
L14923 35334
L14923 35390
" />
<path d="M15626 35672
L15682 35700
L15794 35700
L15851 35672
L15879 35615
L15879 35587
L15851 35531
L15794 35503
L15710 35503
L15654 35475
L15626 35418
L15626 35390
L15654 35334
L15710 35306
L15794 35306
L15851 35334
" />
<path d="M16385 35672
L16329 35700
L16216 35700
L16160 35672
L16132 35643
L16104 35587
L16104 35418
L16132 35362
L16160 35334
L16216 35306
L16329 35306
L16385 35334
" />
<path d="M16638 35700
L16638 35109
" />
<path d="M16891 35700
L16891 35390
L16863 35334
L16807 35306
L16722 35306
L16666 35334
L16638 35362
" />
<path d="M17397 35672
L17341 35700
L17229 35700
L17172 35672
L17144 35615
L17144 35390
L17172 35334
L17229 35306
L17341 35306
L17397 35334
L17425 35390
L17425 35447
L17144 35503
" />
<path d="M17679 35700
L17679 35306
" />
<path d="M17679 35362
L17707 35334
L17763 35306
L17847 35306
L17904 35334
L17932 35390
L17932 35700
" />
<path d="M17932 35390
L17960 35334
L18016 35306
L18100 35306
L18157 35334
L18185 35390
L18185 35700
" />
<path d="M18719 35700
L18719 35390
L18691 35334
L18635 35306
L18522 35306
L18466 35334
" />
<path d="M18719 35672
L18663 35700
L18522 35700
L18466 35672
L18438 35615
L18438 35559
L18466 35503
L18522 35475
L18663 35475
L18719 35447
" />
<path d="M19000 35643
L19028 35672
L19000 35700
L18972 35672
L19000 35643
L19000 35700
" />
<path d="M19281 35700
L19281 35109
" />
<path d="M19338 35475
L19506 35700
" />
<path d="M19506 35306
L19281 35531
" />
<path d="M19760 35700
L19760 35306
" />
<path d="M19760 35109
L19731 35137
L19760 35165
L19788 35137
L19760 35109
L19760 35165
" />
<path d="M20294 35672
L20238 35700
L20125 35700
L20069 35672
L20041 35643
L20013 35587
L20013 35418
L20041 35362
L20069 35334
L20125 35306
L20238 35306
L20294 35334
" />
<path d="M20800 35700
L20800 35390
L20772 35334
L20716 35306
L20603 35306
L20547 35334
" />
<path d="M20800 35672
L20744 35700
L20603 35700
L20547 35672
L20519 35615
L20519 35559
L20547 35503
L20603 35475
L20744 35475
L20800 35447
" />
<path d="M21334 35700
L21334 35109
" />
<path d="M21334 35672
L21278 35700
L21166 35700
L21109 35672
L21081 35643
L21053 35587
L21053 35418
L21081 35362
L21109 35334
L21166 35306
L21278 35306
L21334 35334
" />
<path d="M21475 35756
L21925 35756
" />
<path d="M22037 35672
L22094 35700
L22206 35700
L22262 35672
L22290 35615
L22290 35587
L22262 35531
L22206 35503
L22122 35503
L22065 35475
L22037 35418
L22037 35390
L22065 35334
L22122 35306
L22206 35306
L22262 35334
" />
<path d="M22797 35672
L22740 35700
L22628 35700
L22572 35672
L22544 35643
L22515 35587
L22515 35418
L22544 35362
L22572 35334
L22628 35306
L22740 35306
L22797 35334
" />
<path d="M23050 35700
L23050 35109
" />
<path d="M23303 35700
L23303 35390
L23275 35334
L23218 35306
L23134 35306
L23078 35334
L23050 35362
" />
</g><path d="M12755 33779
L55275 33779
" />
<text x="13149.606299" y="34665.354331"
textLength="3856.417323" font-size="787.401575" lengthAdjust="spacingAndGlyphs"
text-anchor="start" opacity="0">Sheet: /</text>
<g class="stroked-text"><desc>Sheet: /</desc>
<path d="M13292 34609
L13376 34637
L13517 34637
L13573 34609
L13601 34580
L13629 34524
L13629 34468
L13601 34412
L13573 34384
L13517 34355
L13404 34327
L13348 34299
L13320 34271
L13292 34215
L13292 34159
L13320 34102
L13348 34074
L13404 34046
L13545 34046
L13629 34074
" />
<path d="M13882 34637
L13882 34046
" />
<path d="M14135 34637
L14135 34327
L14107 34271
L14051 34243
L13967 34243
L13910 34271
L13882 34299
" />
<path d="M14641 34609
L14585 34637
L14473 34637
L14416 34609
L14388 34552
L14388 34327
L14416 34271
L14473 34243
L14585 34243
L14641 34271
L14670 34327
L14670 34384
L14388 34440
" />
<path d="M15148 34609
L15091 34637
L14979 34637
L14923 34609
L14895 34552
L14895 34327
L14923 34271
L14979 34243
L15091 34243
L15148 34271
L15176 34327
L15176 34384
L14895 34440
" />
<path d="M15344 34243
L15569 34243
" />
<path d="M15429 34046
L15429 34552
L15457 34609
L15513 34637
L15569 34637
" />
<path d="M15766 34580
L15794 34609
L15766 34637
L15738 34609
L15766 34580
L15766 34637
" />
<path d="M15766 34271
L15794 34299
L15766 34327
L15738 34299
L15766 34271
L15766 34327
" />
<path d="M16919 34018
L16413 34777
" />
</g></g>
<g style="fill:#840000; fill-opacity:0.0; 
stroke:#840000; stroke-width:118.110236; stroke-opacity:1; 
stroke-linecap:round; stroke-linejoin:round;">
<text x="13149.606299" y="33484.251969"
textLength="60.000000" font-size="787.401575" lengthAdjust="spacingAndGlyphs"
text-anchor="start" opacity="0"></text>
<g class="stroked-text"><desc></desc>
</g></g>
<g style="fill:#840000; fill-opacity:0.0; 
stroke:#840000; stroke-width:60.000000; stroke-opacity:1; 
stroke-linecap:round; stroke-linejoin:round;">
<text x="13149.606299" y="32303.149606"
textLength="118.110236" font-size="787.401575" lengthAdjust="spacingAndGlyphs"
text-anchor="start" opacity="0"></text>
<g class="stroked-text"><desc></desc>
</g><text x="13149.606299" y="31122.047244"
textLength="60.000000" font-size="787.401575" lengthAdjust="spacingAndGlyphs"
text-anchor="start" opacity="0"></text>
<g class="stroked-text"><desc></desc>
</g><text x="13149.606299" y="29940.944882"
textLength="60.000000" font-size="787.401575" lengthAdjust="spacingAndGlyphs"
text-anchor="start" opacity="0"></text>
<g class="stroked-text"><desc></desc>
</g><text x="13149.606299" y="28759.842520"
textLength="60.000000" font-size="787.401575" lengthAdjust="spacingAndGlyphs"
text-anchor="start" opacity="0"></text>
<g class="stroked-text"><desc></desc>
</g><path d="M20629 37716
L20629 38897
" />
<path d="M45826 37716
L45826 40275
" />
<g >
<path style="fill:#840000; fill-opacity:0.0; 
stroke:#840000; stroke-width:60.000000; stroke-opacity:1; 
stroke-linecap:round; stroke-linejoin:round;fill:none"
d="M 21500.000000,18500.000000
13500.000000,18500.000000
13500.000000,9500.000000
21500.000000,9500.000000
Z" /> 
<path d="M21500 10500
L23500 10500
" />
</g>
<g style="fill:#006464; fill-opacity:0.0; 
stroke:#006464; stroke-width:60.000000; stroke-opacity:1; 
stroke-linecap:round; stroke-linejoin:round;">
<text x="21200.000000" y="10750.000000"
textLength="1298.110236" font-size="666.653543" lengthAdjust="spacingAndGlyphs"
text-anchor="end" opacity="0">IO4</text>
<g class="stroked-text"><desc>IO4</desc>
<path d="M20050 10726
L20050 10226
" />
<path d="M20384 10226
L20479 10226
L20527 10250
L20574 10297
L20598 10392
L20598 10559
L20574 10654
L20527 10702
L20479 10726
L20384 10726
L20336 10702
L20289 10654
L20265 10559
L20265 10392
L20289 10297
L20336 10250
L20384 10226
" />
<path d="M21027 10392
L21027 10726
" />
<path d="M20908 10202
L20789 10559
L21098 10559
" />
</g></g>
<g style="fill:#A90000; fill-opacity:0.0; 
stroke:#A90000; stroke-width:60.000000; stroke-opacity:1; 
stroke-linecap:round; stroke-linejoin:round;">
<text x="22500.000000" y="10400.000000"
textLength="536.181102" font-size="666.653543" lengthAdjust="spacingAndGlyphs"
text-anchor="middle" opacity="0">1</text>
<g class="stroked-text"><desc>1</desc>
<path d="M22642 10376
L22357 10376
" />
<path d="M22500 10376
L22500 9876
L22452 9947
L22404 9995
L22357 10019
" />
</g></g>
<g style="fill:#840000; fill-opacity:0.0; 
stroke:#840000; stroke-width:60.000000; stroke-opacity:1; 
stroke-linecap:round; stroke-linejoin:round;">
<path d="M13500 16500
L11500 16500
" />
</g>
<g style="fill:#006464; fill-opacity:0.0; 
stroke:#006464; stroke-width:60.000000; stroke-opacity:1; 
stroke-linecap:round; stroke-linejoin:round;">
<text x="13800.000000" y="16750.000000"
textLength="1774.291339" font-size="666.653543" lengthAdjust="spacingAndGlyphs"
text-anchor="start" opacity="0">IO16</text>
<g class="stroked-text"><desc>IO16</desc>
<path d="M13949 16726
L13949 16226
" />
<path d="M14282 16226
L14377 16226
L14425 16250
L14472 16297
L14496 16392
L14496 16559
L14472 16654
L14425 16702
L14377 16726
L14282 16726
L14234 16702
L14187 16654
L14163 16559
L14163 16392
L14187 16297
L14234 16250
L14282 16226
" />
<path d="M14972 16726
L14687 16726
" />
<path d="M14830 16726
L14830 16226
L14782 16297
L14734 16345
L14687 16369
" />
<path d="M15401 16226
L15306 16226
L15258 16250
L15234 16273
L15187 16345
L15163 16440
L15163 16630
L15187 16678
L15210 16702
L15258 16726
L15353 16726
L15401 16702
L15425 16678
L15449 16630
L15449 16511
L15425 16464
L15401 16440
L15353 16416
L15258 16416
L15210 16440
L15187 16464
L15163 16511
" />
</g></g>
<g style="fill:#A90000; fill-opacity:0.0; 
stroke:#A90000; stroke-width:60.000000; stroke-opacity:1; 
stroke-linecap:round; stroke-linejoin:round;">
<text x="12500.000000" y="16400.000000"
textLength="1012.362205" font-size="666.653543" lengthAdjust="spacingAndGlyphs"
text-anchor="middle" opacity="0">10</text>
<g class="stroked-text"><desc>10</desc>
<path d="M12404 16376
L12119 16376
" />
<path d="M12261 16376
L12261 15876
L12214 15947
L12166 15995
L12119 16019
" />
<path d="M12714 15876
L12761 15876
L12809 15900
L12833 15923
L12857 15971
L12880 16066
L12880 16185
L12857 16280
L12833 16328
L12809 16352
L12761 16376
L12714 16376
L12666 16352
L12642 16328
L12619 16280
L12595 16185
L12595 16066
L12619 15971
L12642 15923
L12666 15900
L12714 15876
" />
</g></g>
<g style="fill:#840000; fill-opacity:0.0; 
stroke:#840000; stroke-width:60.000000; stroke-opacity:1; 
stroke-linecap:round; stroke-linejoin:round;">
<path d="M13500 15500
L11500 15500
" />
</g>
<g style="fill:#006464; fill-opacity:0.0; 
stroke:#006464; stroke-width:60.000000; stroke-opacity:1; 
stroke-linecap:round; stroke-linejoin:round;">
<text x="13800.000000" y="15750.000000"
textLength="1298.110236" font-size="666.653543" lengthAdjust="spacingAndGlyphs"
text-anchor="start" opacity="0">IO0</text>
<g class="stroked-text"><desc>IO0</desc>
<path d="M13949 15726
L13949 15226
" />
<path d="M14282 15226
L14377 15226
L14425 15250
L14472 15297
L14496 15392
L14496 15559
L14472 15654
L14425 15702
L14377 15726
L14282 15726
L14234 15702
L14187 15654
L14163 15559
L14163 15392
L14187 15297
L14234 15250
L14282 15226
" />
<path d="M14806 15226
L14853 15226
L14901 15250
L14925 15273
L14949 15321
L14972 15416
L14972 15535
L14949 15630
L14925 15678
L14901 15702
L14853 15726
L14806 15726
L14758 15702
L14734 15678
L14710 15630
L14687 15535
L14687 15416
L14710 15321
L14734 15273
L14758 15250
L14806 15226
" />
</g></g>
<g style="fill:#A90000; fill-opacity:0.0; 
stroke:#A90000; stroke-width:60.000000; stroke-opacity:1; 
stroke-linecap:round; stroke-linejoin:round;">
<text x="12500.000000" y="15400.000000"
textLength="1012.362205" font-size="666.653543" lengthAdjust="spacingAndGlyphs"
text-anchor="middle" opacity="0">11</text>
<g class="stroked-text"><desc>11</desc>
<path d="M12404 15376
L12119 15376
" />
<path d="M12261 15376
L12261 14876
L12214 14947
L12166 14995
L12119 15019
" />
<path d="M12880 15376
L12595 15376
" />
<path d="M12738 15376
L12738 14876
L12690 14947
L12642 14995
L12595 15019
" />
</g></g>
<g style="fill:#840000; fill-opacity:0.0; 
stroke:#840000; stroke-width:60.000000; stroke-opacity:1; 
stroke-linecap:round; stroke-linejoin:round;">
<path d="M13500 14500
L11500 14500
" />
</g>
<g style="fill:#006464; fill-opacity:0.0; 
stroke:#006464; stroke-width:60.000000; stroke-opacity:1; 
stroke-linecap:round; stroke-linejoin:round;">
<text x="13800.000000" y="14750.000000"
textLength="2440.944882" font-size="666.653543" lengthAdjust="spacingAndGlyphs"
text-anchor="start" opacity="0">GND_2</text>
<g class="stroked-text"><desc>GND_2</desc>
<path d="M14210 14250
L14163 14226
L14091 14226
L14020 14250
L13972 14297
L13949 14345
L13925 14440
L13925 14511
L13949 14607
L13972 14654
L14020 14702
L14091 14726
L14139 14726
L14210 14702
L14234 14678
L14234 14511
L14139 14511
" />
<path d="M14449 14726
L14449 14226
L14734 14726
L14734 14226
" />
<path d="M14972 14726
L14972 14226
L15091 14226
L15163 14250
L15210 14297
L15234 14345
L15258 14440
L15258 14511
L15234 14607
L15210 14654
L15163 14702
L15091 14726
L14972 14726
" />
<path d="M15353 14773
L15734 14773
" />
<path d="M15830 14273
L15853 14250
L15901 14226
L16020 14226
L16068 14250
L16091 14273
L16115 14321
L16115 14369
L16091 14440
L15806 14726
L16115 14726
" />
</g></g>
<g style="fill:#A90000; fill-opacity:0.0; 
stroke:#A90000; stroke-width:60.000000; stroke-opacity:1; 
stroke-linecap:round; stroke-linejoin:round;">
<text x="12500.000000" y="14400.000000"
textLength="1012.362205" font-size="666.653543" lengthAdjust="spacingAndGlyphs"
text-anchor="middle" opacity="0">12</text>
<g class="stroked-text"><desc>12</desc>
<path d="M12404 14376
L12119 14376
" />
<path d="M12261 14376
L12261 13876
L12214 13947
L12166 13995
L12119 14019
" />
<path d="M12595 13923
L12619 13900
L12666 13876
L12785 13876
L12833 13900
L12857 13923
L12880 13971
L12880 14019
L12857 14090
L12571 14376
L12880 14376
" />
</g></g>
<g style="fill:#840000; fill-opacity:0.0; 
stroke:#840000; stroke-width:60.000000; stroke-opacity:1; 
stroke-linecap:round; stroke-linejoin:round;">
<path d="M13500 13500
L11500 13500
" />
</g>
<g style="fill:#006464; fill-opacity:0.0; 
stroke:#006464; stroke-width:60.000000; stroke-opacity:1; 
stroke-linecap:round; stroke-linejoin:round;">
<text x="13800.000000" y="13750.000000"
textLength="1488.582677" font-size="666.653543" lengthAdjust="spacingAndGlyphs"
text-anchor="start" opacity="0">VCC</text>
<g class="stroked-text"><desc>VCC</desc>
<path d="M13877 13226
L14044 13726
L14210 13226
" />
<path d="M14663 13678
L14639 13702
L14568 13726
L14520 13726
L14449 13702
L14401 13654
L14377 13607
L14353 13511
L14353 13440
L14377 13345
L14401 13297
L14449 13250
L14520 13226
L14568 13226
L14639 13250
L14663 13273
" />
<path d="M15163 13678
L15139 13702
L15068 13726
L15020 13726
L14949 13702
L14901 13654
L14877 13607
L14853 13511
L14853 13440
L14877 13345
L14901 13297
L14949 13250
L15020 13226
L15068 13226
L15139 13250
L15163 13273
" />
</g></g>
<g style="fill:#A90000; fill-opacity:0.0; 
stroke:#A90000; stroke-width:60.000000; stroke-opacity:1; 
stroke-linecap:round; stroke-linejoin:round;">
<text x="12500.000000" y="13400.000000"
textLength="1012.362205" font-size="666.653543" lengthAdjust="spacingAndGlyphs"
text-anchor="middle" opacity="0">13</text>
<g class="stroked-text"><desc>13</desc>
<path d="M12404 13376
L12119 13376
" />
<path d="M12261 13376
L12261 12876
L12214 12947
L12166 12995
L12119 13019
" />
<path d="M12571 12876
L12880 12876
L12714 13066
L12785 13066
L12833 13090
L12857 13114
L12880 13161
L12880 13280
L12857 13328
L12833 13352
L12785 13376
L12642 13376
L12595 13352
L12571 13328
" />
</g></g>
<g style="fill:#840000; fill-opacity:0.0; 
stroke:#840000; stroke-width:60.000000; stroke-opacity:1; 
stroke-linecap:round; stroke-linejoin:round;">
<path d="M13500 12500
L11500 12500
" />
</g>
<g style="fill:#006464; fill-opacity:0.0; 
stroke:#006464; stroke-width:60.000000; stroke-opacity:1; 
stroke-linecap:round; stroke-linejoin:round;">
<text x="13800.000000" y="12750.000000"
textLength="1560.000000" font-size="666.653543" lengthAdjust="spacingAndGlyphs"
text-anchor="start" opacity="0">U0R</text>
<g class="stroked-text"><desc>U0R</desc>
<path d="M13949 12226
L13949 12630
L13972 12678
L13996 12702
L14044 12726
L14139 12726
L14187 12702
L14210 12678
L14234 12630
L14234 12226
" />
<path d="M14568 12226
L14615 12226
L14663 12250
L14687 12273
L14710 12321
L14734 12416
L14734 12535
L14710 12630
L14687 12678
L14663 12702
L14615 12726
L14568 12726
L14520 12702
L14496 12678
L14472 12630
L14449 12535
L14449 12416
L14472 12321
L14496 12273
L14520 12250
L14568 12226
" />
<path d="M15234 12726
L15068 12488
" />
<path d="M14949 12726
L14949 12226
L15139 12226
L15187 12250
L15210 12273
L15234 12321
L15234 12392
L15210 12440
L15187 12464
L15139 12488
L14949 12488
" />
</g></g>
<g style="fill:#A90000; fill-opacity:0.0; 
stroke:#A90000; stroke-width:60.000000; stroke-opacity:1; 
stroke-linecap:round; stroke-linejoin:round;">
<text x="12500.000000" y="12400.000000"
textLength="1012.362205" font-size="666.653543" lengthAdjust="spacingAndGlyphs"
text-anchor="middle" opacity="0">14</text>
<g class="stroked-text"><desc>14</desc>
<path d="M12404 12376
L12119 12376
" />
<path d="M12261 12376
L12261 11876
L12214 11947
L12166 11995
L12119 12019
" />
<path d="M12833 12042
L12833 12376
" />
<path d="M12714 11852
L12595 12209
L12904 12209
" />
</g></g>
<g style="fill:#840000; fill-opacity:0.0; 
stroke:#840000; stroke-width:60.000000; stroke-opacity:1; 
stroke-linecap:round; stroke-linejoin:round;">
<path d="M13500 11500
L11500 11500
" />
</g>
<g style="fill:#006464; fill-opacity:0.0; 
stroke:#006464; stroke-width:60.000000; stroke-opacity:1; 
stroke-linecap:round; stroke-linejoin:round;">
<text x="13800.000000" y="11750.000000"
textLength="1440.944882" font-size="666.653543" lengthAdjust="spacingAndGlyphs"
text-anchor="start" opacity="0">U0T</text>
<g class="stroked-text"><desc>U0T</desc>
<path d="M13949 11226
L13949 11630
L13972 11678
L13996 11702
L14044 11726
L14139 11726
L14187 11702
L14210 11678
L14234 11630
L14234 11226
" />
<path d="M14568 11226
L14615 11226
L14663 11250
L14687 11273
L14710 11321
L14734 11416
L14734 11535
L14710 11630
L14687 11678
L14663 11702
L14615 11726
L14568 11726
L14520 11702
L14496 11678
L14472 11630
L14449 11535
L14449 11416
L14472 11321
L14496 11273
L14520 11250
L14568 11226
" />
<path d="M14877 11226
L15163 11226
" />
<path d="M15020 11726
L15020 11226
" />
</g></g>
<g style="fill:#A90000; fill-opacity:0.0; 
stroke:#A90000; stroke-width:60.000000; stroke-opacity:1; 
stroke-linecap:round; stroke-linejoin:round;">
<text x="12500.000000" y="11400.000000"
textLength="1012.362205" font-size="666.653543" lengthAdjust="spacingAndGlyphs"
text-anchor="middle" opacity="0">15</text>
<g class="stroked-text"><desc>15</desc>
<path d="M12404 11376
L12119 11376
" />
<path d="M12261 11376
L12261 10876
L12214 10947
L12166 10995
L12119 11019
" />
<path d="M12857 10876
L12619 10876
L12595 11114
L12619 11090
L12666 11066
L12785 11066
L12833 11090
L12857 11114
L12880 11161
L12880 11280
L12857 11328
L12833 11352
L12785 11376
L12666 11376
L12619 11352
L12595 11328
" />
</g></g>
<g style="fill:#840000; fill-opacity:0.0; 
stroke:#840000; stroke-width:60.000000; stroke-opacity:1; 
stroke-linecap:round; stroke-linejoin:round;">
<path d="M13500 10500
L11500 10500
" />
</g>
<g style="fill:#006464; fill-opacity:0.0; 
stroke:#006464; stroke-width:60.000000; stroke-opacity:1; 
stroke-linecap:round; stroke-linejoin:round;">
<text x="13800.000000" y="10750.000000"
textLength="2440.944882" font-size="666.653543" lengthAdjust="spacingAndGlyphs"
text-anchor="start" opacity="0">GND_3</text>
<g class="stroked-text"><desc>GND_3</desc>
<path d="M14210 10250
L14163 10226
L14091 10226
L14020 10250
L13972 10297
L13949 10345
L13925 10440
L13925 10511
L13949 10607
L13972 10654
L14020 10702
L14091 10726
L14139 10726
L14210 10702
L14234 10678
L14234 10511
L14139 10511
" />
<path d="M14449 10726
L14449 10226
L14734 10726
L14734 10226
" />
<path d="M14972 10726
L14972 10226
L15091 10226
L15163 10250
L15210 10297
L15234 10345
L15258 10440
L15258 10511
L15234 10607
L15210 10654
L15163 10702
L15091 10726
L14972 10726
" />
<path d="M15353 10773
L15734 10773
" />
<path d="M15806 10226
L16115 10226
L15949 10416
L16020 10416
L16068 10440
L16091 10464
L16115 10511
L16115 10630
L16091 10678
L16068 10702
L16020 10726
L15877 10726
L15830 10702
L15806 10678
" />
</g></g>
<g style="fill:#A90000; fill-opacity:0.0; 
stroke:#A90000; stroke-width:60.000000; stroke-opacity:1; 
stroke-linecap:round; stroke-linejoin:round;">
<text x="12500.000000" y="10400.000000"
textLength="1012.362205" font-size="666.653543" lengthAdjust="spacingAndGlyphs"
text-anchor="middle" opacity="0">16</text>
<g class="stroked-text"><desc>16</desc>
<path d="M12404 10376
L12119 10376
" />
<path d="M12261 10376
L12261 9876
L12214 9947
L12166 9995
L12119 10019
" />
<path d="M12833 9876
L12738 9876
L12690 9900
L12666 9923
L12619 9995
L12595 10090
L12595 10280
L12619 10328
L12642 10352
L12690 10376
L12785 10376
L12833 10352
L12857 10328
L12880 10280
L12880 10161
L12857 10114
L12833 10090
L12785 10066
L12690 10066
L12642 10090
L12619 10114
L12595 10161
" />
</g></g>
<g style="fill:#840000; fill-opacity:0.0; 
stroke:#840000; stroke-width:60.000000; stroke-opacity:1; 
stroke-linecap:round; stroke-linejoin:round;">
<path d="M21500 11500
L23500 11500
" />
</g>
<g style="fill:#006464; fill-opacity:0.0; 
stroke:#006464; stroke-width:60.000000; stroke-opacity:1; 
stroke-linecap:round; stroke-linejoin:round;">
<text x="21200.000000" y="11750.000000"
textLength="1298.110236" font-size="666.653543" lengthAdjust="spacingAndGlyphs"
text-anchor="end" opacity="0">IO2</text>
<g class="stroked-text"><desc>IO2</desc>
<path d="M20050 11726
L20050 11226
" />
<path d="M20384 11226
L20479 11226
L20527 11250
L20574 11297
L20598 11392
L20598 11559
L20574 11654
L20527 11702
L20479 11726
L20384 11726
L20336 11702
L20289 11654
L20265 11559
L20265 11392
L20289 11297
L20336 11250
L20384 11226
" />
<path d="M20789 11273
L20812 11250
L20860 11226
L20979 11226
L21027 11250
L21050 11273
L21074 11321
L21074 11369
L21050 11440
L20765 11726
L21074 11726
" />
</g></g>
<g style="fill:#A90000; fill-opacity:0.0; 
stroke:#A90000; stroke-width:60.000000; stroke-opacity:1; 
stroke-linecap:round; stroke-linejoin:round;">
<text x="22500.000000" y="11400.000000"
textLength="536.181102" font-size="666.653543" lengthAdjust="spacingAndGlyphs"
text-anchor="middle" opacity="0">2</text>
<g class="stroked-text"><desc>2</desc>
<path d="M22357 10923
L22380 10900
L22428 10876
L22547 10876
L22595 10900
L22619 10923
L22642 10971
L22642 11019
L22619 11090
L22333 11376
L22642 11376
" />
</g></g>
<g style="fill:#840000; fill-opacity:0.0; 
stroke:#840000; stroke-width:60.000000; stroke-opacity:1; 
stroke-linecap:round; stroke-linejoin:round;">
<path d="M21500 12500
L23500 12500
" />
</g>
<g style="fill:#006464; fill-opacity:0.0; 
stroke:#006464; stroke-width:60.000000; stroke-opacity:1; 
stroke-linecap:round; stroke-linejoin:round;">
<text x="21200.000000" y="12750.000000"
textLength="1774.291339" font-size="666.653543" lengthAdjust="spacingAndGlyphs"
text-anchor="end" opacity="0">IO14</text>
<g class="stroked-text"><desc>IO14</desc>
<path d="M19574 12726
L19574 12226
" />
<path d="M19908 12226
L20003 12226
L20050 12250
L20098 12297
L20122 12392
L20122 12559
L20098 12654
L20050 12702
L20003 12726
L19908 12726
L19860 12702
L19812 12654
L19789 12559
L19789 12392
L19812 12297
L19860 12250
L19908 12226
" />
<path d="M20598 12726
L20312 12726
" />
<path d="M20455 12726
L20455 12226
L20408 12297
L20360 12345
L20312 12369
" />
<path d="M21027 12392
L21027 12726
" />
<path d="M20908 12202
L20789 12559
L21098 12559
" />
</g></g>
<g style="fill:#A90000; fill-opacity:0.0; 
stroke:#A90000; stroke-width:60.000000; stroke-opacity:1; 
stroke-linecap:round; stroke-linejoin:round;">
<text x="22500.000000" y="12400.000000"
textLength="536.181102" font-size="666.653543" lengthAdjust="spacingAndGlyphs"
text-anchor="middle" opacity="0">3</text>
<g class="stroked-text"><desc>3</desc>
<path d="M22333 11876
L22642 11876
L22476 12066
L22547 12066
L22595 12090
L22619 12114
L22642 12161
L22642 12280
L22619 12328
L22595 12352
L22547 12376
L22404 12376
L22357 12352
L22333 12328
" />
</g></g>
<g style="fill:#840000; fill-opacity:0.0; 
stroke:#840000; stroke-width:60.000000; stroke-opacity:1; 
stroke-linecap:round; stroke-linejoin:round;">
<path d="M21500 13500
L23500 13500
" />
</g>
<g style="fill:#006464; fill-opacity:0.0; 
stroke:#006464; stroke-width:60.000000; stroke-opacity:1; 
stroke-linecap:round; stroke-linejoin:round;">
<text x="21200.000000" y="13750.000000"
textLength="1774.291339" font-size="666.653543" lengthAdjust="spacingAndGlyphs"
text-anchor="end" opacity="0">IO15</text>
<g class="stroked-text"><desc>IO15</desc>
<path d="M19574 13726
L19574 13226
" />
<path d="M19908 13226
L20003 13226
L20050 13250
L20098 13297
L20122 13392
L20122 13559
L20098 13654
L20050 13702
L20003 13726
L19908 13726
L19860 13702
L19812 13654
L19789 13559
L19789 13392
L19812 13297
L19860 13250
L19908 13226
" />
<path d="M20598 13726
L20312 13726
" />
<path d="M20455 13726
L20455 13226
L20408 13297
L20360 13345
L20312 13369
" />
<path d="M21050 13226
L20812 13226
L20789 13464
L20812 13440
L20860 13416
L20979 13416
L21027 13440
L21050 13464
L21074 13511
L21074 13630
L21050 13678
L21027 13702
L20979 13726
L20860 13726
L20812 13702
L20789 13678
" />
</g></g>
<g style="fill:#A90000; fill-opacity:0.0; 
stroke:#A90000; stroke-width:60.000000; stroke-opacity:1; 
stroke-linecap:round; stroke-linejoin:round;">
<text x="22500.000000" y="13400.000000"
textLength="536.181102" font-size="666.653543" lengthAdjust="spacingAndGlyphs"
text-anchor="middle" opacity="0">4</text>
<g class="stroked-text"><desc>4</desc>
<path d="M22595 13042
L22595 13376
" />
<path d="M22476 12852
L22357 13209
L22666 13209
" />
</g></g>
<g style="fill:#840000; fill-opacity:0.0; 
stroke:#840000; stroke-width:60.000000; stroke-opacity:1; 
stroke-linecap:round; stroke-linejoin:round;">
<path d="M21500 14500
L23500 14500
" />
</g>
<g style="fill:#006464; fill-opacity:0.0; 
stroke:#006464; stroke-width:60.000000; stroke-opacity:1; 
stroke-linecap:round; stroke-linejoin:round;">
<text x="21200.000000" y="14750.000000"
textLength="1774.291339" font-size="666.653543" lengthAdjust="spacingAndGlyphs"
text-anchor="end" opacity="0">IO13</text>
<g class="stroked-text"><desc>IO13</desc>
<path d="M19574 14726
L19574 14226
" />
<path d="M19908 14226
L20003 14226
L20050 14250
L20098 14297
L20122 14392
L20122 14559
L20098 14654
L20050 14702
L20003 14726
L19908 14726
L19860 14702
L19812 14654
L19789 14559
L19789 14392
L19812 14297
L19860 14250
L19908 14226
" />
<path d="M20598 14726
L20312 14726
" />
<path d="M20455 14726
L20455 14226
L20408 14297
L20360 14345
L20312 14369
" />
<path d="M20765 14226
L21074 14226
L20908 14416
L20979 14416
L21027 14440
L21050 14464
L21074 14511
L21074 14630
L21050 14678
L21027 14702
L20979 14726
L20836 14726
L20789 14702
L20765 14678
" />
</g></g>
<g style="fill:#A90000; fill-opacity:0.0; 
stroke:#A90000; stroke-width:60.000000; stroke-opacity:1; 
stroke-linecap:round; stroke-linejoin:round;">
<text x="22500.000000" y="14400.000000"
textLength="536.181102" font-size="666.653543" lengthAdjust="spacingAndGlyphs"
text-anchor="middle" opacity="0">5</text>
<g class="stroked-text"><desc>5</desc>
<path d="M22619 13876
L22380 13876
L22357 14114
L22380 14090
L22428 14066
L22547 14066
L22595 14090
L22619 14114
L22642 14161
L22642 14280
L22619 14328
L22595 14352
L22547 14376
L22428 14376
L22380 14352
L22357 14328
" />
</g></g>
<g style="fill:#840000; fill-opacity:0.0; 
stroke:#840000; stroke-width:60.000000; stroke-opacity:1; 
stroke-linecap:round; stroke-linejoin:round;">
<path d="M21500 15500
L23500 15500
" />
</g>
<g style="fill:#006464; fill-opacity:0.0; 
stroke:#006464; stroke-width:60.000000; stroke-opacity:1; 
stroke-linecap:round; stroke-linejoin:round;">
<text x="21200.000000" y="15750.000000"
textLength="1774.291339" font-size="666.653543" lengthAdjust="spacingAndGlyphs"
text-anchor="end" opacity="0">IO12</text>
<g class="stroked-text"><desc>IO12</desc>
<path d="M19574 15726
L19574 15226
" />
<path d="M19908 15226
L20003 15226
L20050 15250
L20098 15297
L20122 15392
L20122 15559
L20098 15654
L20050 15702
L20003 15726
L19908 15726
L19860 15702
L19812 15654
L19789 15559
L19789 15392
L19812 15297
L19860 15250
L19908 15226
" />
<path d="M20598 15726
L20312 15726
" />
<path d="M20455 15726
L20455 15226
L20408 15297
L20360 15345
L20312 15369
" />
<path d="M20789 15273
L20812 15250
L20860 15226
L20979 15226
L21027 15250
L21050 15273
L21074 15321
L21074 15369
L21050 15440
L20765 15726
L21074 15726
" />
</g></g>
<g style="fill:#A90000; fill-opacity:0.0; 
stroke:#A90000; stroke-width:60.000000; stroke-opacity:1; 
stroke-linecap:round; stroke-linejoin:round;">
<text x="22500.000000" y="15400.000000"
textLength="536.181102" font-size="666.653543" lengthAdjust="spacingAndGlyphs"
text-anchor="middle" opacity="0">6</text>
<g class="stroked-text"><desc>6</desc>
<path d="M22595 14876
L22500 14876
L22452 14900
L22428 14923
L22380 14995
L22357 15090
L22357 15280
L22380 15328
L22404 15352
L22452 15376
L22547 15376
L22595 15352
L22619 15328
L22642 15280
L22642 15161
L22619 15114
L22595 15090
L22547 15066
L22452 15066
L22404 15090
L22380 15114
L22357 15161
" />
</g></g>
<g style="fill:#840000; fill-opacity:0.0; 
stroke:#840000; stroke-width:60.000000; stroke-opacity:1; 
stroke-linecap:round; stroke-linejoin:round;">
<path d="M21500 16500
L23500 16500
" />
</g>
<g style="fill:#006464; fill-opacity:0.0; 
stroke:#006464; stroke-width:60.000000; stroke-opacity:1; 
stroke-linecap:round; stroke-linejoin:round;">
<text x="21200.000000" y="16750.000000"
textLength="2440.944882" font-size="666.653543" lengthAdjust="spacingAndGlyphs"
text-anchor="end" opacity="0">GND_1</text>
<g class="stroked-text"><desc>GND_1</desc>
<path d="M19170 16250
L19122 16226
L19050 16226
L18979 16250
L18931 16297
L18908 16345
L18884 16440
L18884 16511
L18908 16607
L18931 16654
L18979 16702
L19050 16726
L19098 16726
L19170 16702
L19193 16678
L19193 16511
L19098 16511
" />
<path d="M19408 16726
L19408 16226
L19693 16726
L19693 16226
" />
<path d="M19931 16726
L19931 16226
L20050 16226
L20122 16250
L20170 16297
L20193 16345
L20217 16440
L20217 16511
L20193 16607
L20170 16654
L20122 16702
L20050 16726
L19931 16726
" />
<path d="M20312 16773
L20693 16773
" />
<path d="M21074 16726
L20789 16726
" />
<path d="M20931 16726
L20931 16226
L20884 16297
L20836 16345
L20789 16369
" />
</g></g>
<g style="fill:#A90000; fill-opacity:0.0; 
stroke:#A90000; stroke-width:60.000000; stroke-opacity:1; 
stroke-linecap:round; stroke-linejoin:round;">
<text x="22500.000000" y="16400.000000"
textLength="536.181102" font-size="666.653543" lengthAdjust="spacingAndGlyphs"
text-anchor="middle" opacity="0">7</text>
<g class="stroked-text"><desc>7</desc>
<path d="M22333 15876
L22666 15876
L22452 16376
" />
</g></g>
<g style="fill:#840000; fill-opacity:0.0; 
stroke:#840000; stroke-width:60.000000; stroke-opacity:1; 
stroke-linecap:round; stroke-linejoin:round;">
<path d="M21500 17500
L23500 17500
" />
</g>
<g style="fill:#006464; fill-opacity:0.0; 
stroke:#006464; stroke-width:60.000000; stroke-opacity:1; 
stroke-linecap:round; stroke-linejoin:round;">
<text x="21200.000000" y="17750.000000"
textLength="964.763780" font-size="666.653543" lengthAdjust="spacingAndGlyphs"
text-anchor="end" opacity="0">5V</text>
<g class="stroked-text"><desc>5V</desc>
<path d="M20622 17226
L20384 17226
L20360 17464
L20384 17440
L20431 17416
L20550 17416
L20598 17440
L20622 17464
L20646 17511
L20646 17630
L20622 17678
L20598 17702
L20550 17726
L20431 17726
L20384 17702
L20360 17678
" />
<path d="M20789 17226
L20955 17726
L21122 17226
" />
</g></g>
<g style="fill:#A90000; fill-opacity:0.0; 
stroke:#A90000; stroke-width:60.000000; stroke-opacity:1; 
stroke-linecap:round; stroke-linejoin:round;">
<text x="22500.000000" y="17400.000000"
textLength="536.181102" font-size="666.653543" lengthAdjust="spacingAndGlyphs"
text-anchor="middle" opacity="0">8</text>
<g class="stroked-text"><desc>8</desc>
<path d="M22452 17090
L22404 17066
L22380 17042
L22357 16995
L22357 16971
L22380 16923
L22404 16900
L22452 16876
L22547 16876
L22595 16900
L22619 16923
L22642 16971
L22642 16995
L22619 17042
L22595 17066
L22547 17090
L22452 17090
L22404 17114
L22380 17138
L22357 17185
L22357 17280
L22380 17328
L22404 17352
L22452 17376
L22547 17376
L22595 17352
L22619 17328
L22642 17280
L22642 17185
L22619 17138
L22595 17114
L22547 17090
" />
</g></g>
<g style="fill:#840000; fill-opacity:0.0; 
stroke:#840000; stroke-width:60.000000; stroke-opacity:1; 
stroke-linecap:round; stroke-linejoin:round;">
<path d="M13500 17500
L11500 17500
" />
</g>
<g style="fill:#006464; fill-opacity:0.0; 
stroke:#006464; stroke-width:60.000000; stroke-opacity:1; 
stroke-linecap:round; stroke-linejoin:round;">
<text x="13800.000000" y="17750.000000"
textLength="1440.944882" font-size="666.653543" lengthAdjust="spacingAndGlyphs"
text-anchor="start" opacity="0">3V3</text>
<g class="stroked-text"><desc>3V3</desc>
<path d="M13901 17226
L14210 17226
L14044 17416
L14115 17416
L14163 17440
L14187 17464
L14210 17511
L14210 17630
L14187 17678
L14163 17702
L14115 17726
L13972 17726
L13925 17702
L13901 17678
" />
<path d="M14353 17226
L14520 17726
L14687 17226
" />
<path d="M14806 17226
L15115 17226
L14949 17416
L15020 17416
L15068 17440
L15091 17464
L15115 17511
L15115 17630
L15091 17678
L15068 17702
L15020 17726
L14877 17726
L14830 17702
L14806 17678
" />
</g></g>
<g style="fill:#A90000; fill-opacity:0.0; 
stroke:#A90000; stroke-width:60.000000; stroke-opacity:1; 
stroke-linecap:round; stroke-linejoin:round;">
<text x="12500.000000" y="17400.000000"
textLength="536.181102" font-size="666.653543" lengthAdjust="spacingAndGlyphs"
text-anchor="middle" opacity="0">9</text>
<g class="stroked-text"><desc>9</desc>
<path d="M12404 17376
L12500 17376
L12547 17352
L12571 17328
L12619 17257
L12642 17161
L12642 16971
L12619 16923
L12595 16900
L12547 16876
L12452 16876
L12404 16900
L12380 16923
L12357 16971
L12357 17090
L12380 17138
L12404 17161
L12452 17185
L12547 17185
L12595 17161
L12619 17138
L12642 17090
" />
</g></g>
<g style="fill:#006464; fill-opacity:0.0; 
stroke:#006464; stroke-width:60.000000; stroke-opacity:1; 
stroke-linecap:round; stroke-linejoin:round;">
<text x="15000.000000" y="9249.960630"
textLength="798.110236" font-size="666.653543" lengthAdjust="spacingAndGlyphs"
text-anchor="middle" opacity="0">IC</text>
<g class="stroked-text"><desc>IC</desc>
<path d="M14750 9226
L14750 8726
" />
<path d="M15273 9178
L15250 9202
L15178 9226
L15130 9226
L15059 9202
L15011 9154
L14988 9107
L14964 9011
L14964 8940
L14988 8845
L15011 8797
L15059 8749
L15130 8726
L15178 8726
L15250 8749
L15273 8773
" />
</g><text x="18000.000000" y="9249.960630"
textLength="4560.000000" font-size="666.653543" lengthAdjust="spacingAndGlyphs"
text-anchor="middle" opacity="0">ESP32-CAM</text>
<g class="stroked-text"><desc>ESP32-CAM</desc>
<path d="M15869 8964
L16035 8964
" />
<path d="M16107 9226
L15869 9226
L15869 8726
L16107 8726
" />
<path d="M16297 9202
L16369 9226
L16488 9226
L16535 9202
L16559 9178
L16583 9130
L16583 9083
L16559 9035
L16535 9011
L16488 8988
L16392 8964
L16345 8940
L16321 8916
L16297 8868
L16297 8821
L16321 8773
L16345 8749
L16392 8726
L16511 8726
L16583 8749
" />
<path d="M16797 9226
L16797 8726
L16988 8726
L17035 8749
L17059 8773
L17083 8821
L17083 8892
L17059 8940
L17035 8964
L16988 8988
L16797 8988
" />
<path d="M17250 8726
L17559 8726
L17392 8916
L17464 8916
L17511 8940
L17535 8964
L17559 9011
L17559 9130
L17535 9178
L17511 9202
L17464 9226
L17321 9226
L17273 9202
L17250 9178
" />
<path d="M17750 8773
L17773 8749
L17821 8726
L17940 8726
L17988 8749
L18011 8773
L18035 8821
L18035 8868
L18011 8940
L17726 9226
L18035 9226
" />
<path d="M18250 9035
L18630 9035
" />
<path d="M19154 9178
L19130 9202
L19059 9226
L19011 9226
L18940 9202
L18892 9154
L18869 9107
L18845 9011
L18845 8940
L18869 8845
L18892 8797
L18940 8749
L19011 8726
L19059 8726
L19130 8749
L19154 8773
" />
<path d="M19345 9083
L19583 9083
" />
<path d="M19297 9226
L19464 8726
L19630 9226
" />
<path d="M19797 9226
L19797 8726
L19964 9083
L20130 8726
L20130 9226
" />
</g></g>
</g>
<g style="fill:#006464; fill-opacity:0.0; 
stroke:#006464; stroke-width:60.000000; stroke-opacity:1; 
stroke-linecap:round; stroke-linejoin:round;">
<g >
</g>
<g style="fill:#840000; fill-opacity:0.0; 
stroke:#840000; stroke-width:60.000000; stroke-opacity:1; 
stroke-linecap:round; stroke-linejoin:round;">
<path style="fill:#840000; fill-opacity:0.0; 
stroke:#840000; stroke-width:60.000000; stroke-opacity:1; 
stroke-linecap:round; stroke-linejoin:round;fill:none"
d="M 29250.000000,23750.000000
29750.000000,23750.000000
" /> 
<path style="fill:#840000; fill-opacity:0.0; 
stroke:#840000; stroke-width:60.000000; stroke-opacity:1; 
stroke-linecap:round; stroke-linejoin:round;fill:none"
d="M 29450.000000,24000.000000
29550.000000,24000.000000
" /> 
<path style="fill:#840000; fill-opacity:0.0; 
stroke:#840000; stroke-width:60.000000; stroke-opacity:1; 
stroke-linecap:round; stroke-linejoin:round;fill:none"
d="M 29500.000000,23500.000000
29500.000000,23000.000000
" /> 
<path style="fill:#840000; fill-opacity:0.0; 
stroke:#840000; stroke-width:60.000000; stroke-opacity:1; 
stroke-linecap:round; stroke-linejoin:round;fill:none"
d="M 30000.000000,23500.000000
29000.000000,23500.000000
" /> 
</g>
</g>
<g style="fill:#840000; fill-opacity:0.0; 
stroke:#840000; stroke-width:60.000000; stroke-opacity:1; 
stroke-linecap:round; stroke-linejoin:round;">
<g >
<path style="fill:#840000; fill-opacity:0.0; 
stroke:#840000; stroke-width:60.000000; stroke-opacity:1; 
stroke-linecap:round; stroke-linejoin:round;fill:none"
d="M 28800.000000,23500.000000
28500.000000,24000.000000
" /> 
<path style="fill:#840000; fill-opacity:0.0; 
stroke:#840000; stroke-width:60.000000; stroke-opacity:1; 
stroke-linecap:round; stroke-linejoin:round;fill:none"
d="M 28500.000000,23000.000000
28500.000000,24000.000000
" /> 
<path style="fill:#840000; fill-opacity:0.0; 
stroke:#840000; stroke-width:60.000000; stroke-opacity:1; 
stroke-linecap:round; stroke-linejoin:round;fill:none"
d="M 28500.000000,24000.000000
28200.000000,23500.000000
" /> 
</g>
<g style="fill:#006464; fill-opacity:0.0; 
stroke:#006464; stroke-width:60.000000; stroke-opacity:1; 
stroke-linecap:round; stroke-linejoin:round;">
<g transform="rotate(-90.000000 28500.000000 25293.149606)">
<text x="28500.000000" y="25543.149606"
textLength="1583.818898" font-size="666.653543" lengthAdjust="spacingAndGlyphs"
text-anchor="middle" opacity="0">+5V</text>
</g>
<g class="stroked-text"><desc>+5V</desc>
<path d="M28535 25935
L28535 25555
" />
<path d="M28726 25745
L28345 25745
" />
<path d="M28226 25078
L28226 25316
L28464 25340
L28440 25316
L28416 25269
L28416 25150
L28440 25102
L28464 25078
L28511 25055
L28630 25055
L28678 25078
L28702 25102
L28726 25150
L28726 25269
L28702 25316
L28678 25340
" />
<path d="M28226 24912
L28726 24745
L28226 24578
" />
</g></g>
</g>
<g style="fill:#006464; fill-opacity:0.0; 
stroke:#006464; stroke-width:60.000000; stroke-opacity:1; 
stroke-linecap:round; stroke-linejoin:round;">
<g >
</g>
<g style="fill:#840000; fill-opacity:0.0; 
stroke:#840000; stroke-width:60.000000; stroke-opacity:1; 
stroke-linecap:round; stroke-linejoin:round;">
<rect x="37500.000000" y="11000.000000" width="11000.000000" height="11000.000000" rx="0.000000" />
<rect x="37500.000000" y="9000.000000" width="11000.000000" height="15000.000000" rx="0.000000" />
<circle cx="43000.000000" cy="23000.000000" r="500.000000" /> 
<circle cx="43000.000000" cy="16500.000000" r="4949.763780" /> 
<circle cx="43000.000000" cy="10000.000000" r="500.000000" /> 
<line x1="48500.000000" y1="10500.000000" x2="48500.000000" y2="11000.000000" />
<path d="M38181 15500
L36000 15500
" />
</g>
<g style="fill:#006464; fill-opacity:0.0; 
stroke:#006464; stroke-width:60.000000; stroke-opacity:1; 
stroke-linecap:round; stroke-linejoin:round;">
<text x="38381.102362" y="15750.000000"
textLength="1583.818898" font-size="666.653543" lengthAdjust="spacingAndGlyphs"
text-anchor="start" opacity="0">GND</text>
<g class="stroked-text"><desc>GND</desc>
<path d="M38792 15250
L38744 15226
L38672 15226
L38601 15250
L38553 15297
L38530 15345
L38506 15440
L38506 15511
L38530 15607
L38553 15654
L38601 15702
L38672 15726
L38720 15726
L38792 15702
L38815 15678
L38815 15511
L38720 15511
" />
<path d="M39030 15726
L39030 15226
L39315 15726
L39315 15226
" />
<path d="M39553 15726
L39553 15226
L39672 15226
L39744 15250
L39792 15297
L39815 15345
L39839 15440
L39839 15511
L39815 15607
L39792 15654
L39744 15702
L39672 15726
L39553 15726
" />
</g></g>
<g style="fill:#A90000; fill-opacity:0.0; 
stroke:#A90000; stroke-width:60.000000; stroke-opacity:1; 
stroke-linecap:round; stroke-linejoin:round;">
<text x="37090.551181" y="15400.000000"
textLength="536.181102" font-size="666.653543" lengthAdjust="spacingAndGlyphs"
text-anchor="middle" opacity="0">1</text>
<g class="stroked-text"><desc>1</desc>
<path d="M37233 15376
L36947 15376
" />
<path d="M37090 15376
L37090 14876
L37042 14947
L36995 14995
L36947 15019
" />
</g></g>
<g style="fill:#840000; fill-opacity:0.0; 
stroke:#840000; stroke-width:60.000000; stroke-opacity:1; 
stroke-linecap:round; stroke-linejoin:round;">
<path d="M38181 16500
L36000 16500
" />
</g>
<g style="fill:#006464; fill-opacity:0.0; 
stroke:#006464; stroke-width:60.000000; stroke-opacity:1; 
stroke-linecap:round; stroke-linejoin:round;">
<text x="38381.102362" y="16750.000000"
textLength="1488.582677" font-size="666.653543" lengthAdjust="spacingAndGlyphs"
text-anchor="start" opacity="0">OUT</text>
<g class="stroked-text"><desc>OUT</desc>
<path d="M38625 16226
L38720 16226
L38768 16250
L38815 16297
L38839 16392
L38839 16559
L38815 16654
L38768 16702
L38720 16726
L38625 16726
L38577 16702
L38530 16654
L38506 16559
L38506 16392
L38530 16297
L38577 16250
L38625 16226
" />
<path d="M39053 16226
L39053 16630
L39077 16678
L39101 16702
L39149 16726
L39244 16726
L39292 16702
L39315 16678
L39339 16630
L39339 16226
" />
<path d="M39506 16226
L39792 16226
" />
<path d="M39649 16726
L39649 16226
" />
</g></g>
<g style="fill:#A90000; fill-opacity:0.0; 
stroke:#A90000; stroke-width:60.000000; stroke-opacity:1; 
stroke-linecap:round; stroke-linejoin:round;">
<text x="37090.551181" y="16400.000000"
textLength="536.181102" font-size="666.653543" lengthAdjust="spacingAndGlyphs"
text-anchor="middle" opacity="0">2</text>
<g class="stroked-text"><desc>2</desc>
<path d="M36947 15923
L36971 15900
L37019 15876
L37138 15876
L37185 15900
L37209 15923
L37233 15971
L37233 16019
L37209 16090
L36923 16376
L37233 16376
" />
</g></g>
<g style="fill:#840000; fill-opacity:0.0; 
stroke:#840000; stroke-width:60.000000; stroke-opacity:1; 
stroke-linecap:round; stroke-linejoin:round;">
<path d="M38181 17500
L36000 17500
" />
</g>
<g style="fill:#006464; fill-opacity:0.0; 
stroke:#006464; stroke-width:60.000000; stroke-opacity:1; 
stroke-linecap:round; stroke-linejoin:round;">
<text x="38381.102362" y="17750.000000"
textLength="964.763780" font-size="666.653543" lengthAdjust="spacingAndGlyphs"
text-anchor="start" opacity="0">5V</text>
<g class="stroked-text"><desc>5V</desc>
<path d="M38768 17226
L38530 17226
L38506 17464
L38530 17440
L38577 17416
L38696 17416
L38744 17440
L38768 17464
L38792 17511
L38792 17630
L38768 17678
L38744 17702
L38696 17726
L38577 17726
L38530 17702
L38506 17678
" />
<path d="M38934 17226
L39101 17726
L39268 17226
" />
</g></g>
<g style="fill:#A90000; fill-opacity:0.0; 
stroke:#A90000; stroke-width:60.000000; stroke-opacity:1; 
stroke-linecap:round; stroke-linejoin:round;">
<text x="37090.551181" y="17400.000000"
textLength="536.181102" font-size="666.653543" lengthAdjust="spacingAndGlyphs"
text-anchor="middle" opacity="0">3</text>
<g class="stroked-text"><desc>3</desc>
<path d="M36923 16876
L37233 16876
L37066 17066
L37138 17066
L37185 17090
L37209 17114
L37233 17161
L37233 17280
L37209 17328
L37185 17352
L37138 17376
L36995 17376
L36947 17352
L36923 17328
" />
</g></g>
<g style="fill:#006464; fill-opacity:0.0; 
stroke:#006464; stroke-width:60.000000; stroke-opacity:1; 
stroke-linecap:round; stroke-linejoin:round;">
<g transform="rotate(-90.000000 49000.000000 18849.685039)">
<text x="49000.000000" y="19099.685039"
textLength="1298.110236" font-size="666.653543" lengthAdjust="spacingAndGlyphs"
text-anchor="middle" opacity="0">PIR</text>
</g>
<g class="stroked-text"><desc>PIR</desc>
<path d="M49226 19349
L48726 19349
L48726 19159
L48750 19111
L48773 19087
L48821 19063
L48892 19063
L48940 19087
L48964 19111
L48988 19159
L48988 19349
" />
<path d="M49226 18849
L48726 18849
" />
<path d="M49226 18325
L48988 18492
" />
<path d="M49226 18611
L48726 18611
L48726 18421
L48750 18373
L48773 18349
L48821 18325
L48892 18325
L48940 18349
L48964 18373
L48988 18421
L48988 18611
" />
</g><g transform="rotate(-90.000000 49000.000000 14944.921260)">
<text x="49000.000000" y="15194.921260"
textLength="4107.637795" font-size="666.653543" lengthAdjust="spacingAndGlyphs"
text-anchor="middle" opacity="0">HC-SR501</text>
</g>
<g class="stroked-text"><desc>HC-SR501</desc>
<path d="M49226 16849
L48726 16849
" />
<path d="M48964 16849
L48964 16563
" />
<path d="M49226 16563
L48726 16563
" />
<path d="M49178 16040
L49202 16063
L49226 16135
L49226 16182
L49202 16254
L49154 16302
L49107 16325
L49011 16349
L48940 16349
L48845 16325
L48797 16302
L48750 16254
L48726 16182
L48726 16135
L48750 16063
L48773 16040
" />
<path d="M49035 15825
L49035 15444
" />
<path d="M49202 15230
L49226 15159
L49226 15040
L49202 14992
L49178 14968
L49130 14944
L49083 14944
L49035 14968
L49011 14992
L48988 15040
L48964 15135
L48940 15182
L48916 15206
L48869 15230
L48821 15230
L48773 15206
L48750 15182
L48726 15135
L48726 15016
L48750 14944
" />
<path d="M49226 14444
L48988 14611
" />
<path d="M49226 14730
L48726 14730
L48726 14540
L48750 14492
L48773 14468
L48821 14444
L48892 14444
L48940 14468
L48964 14492
L48988 14540
L48988 14730
" />
<path d="M48726 13992
L48726 14230
L48964 14254
L48940 14230
L48916 14182
L48916 14063
L48940 14016
L48964 13992
L49011 13968
L49130 13968
L49178 13992
L49202 14016
L49226 14063
L49226 14182
L49202 14230
L49178 14254
" />
<path d="M48726 13659
L48726 13611
L48750 13563
L48773 13540
L48821 13516
L48916 13492
L49035 13492
L49130 13516
L49178 13540
L49202 13563
L49226 13611
L49226 13659
L49202 13706
L49178 13730
L49130 13754
L49035 13778
L48916 13778
L48821 13754
L48773 13730
L48750 13706
L48726 13659
" />
<path d="M49226 13016
L49226 13302
" />
<path d="M49226 13159
L48726 13159
L48797 13206
L48845 13254
L48869 13302
" />
</g></g>
</g>
<g style="fill:#006464; fill-opacity:0.0; 
stroke:#006464; stroke-width:60.000000; stroke-opacity:1; 
stroke-linecap:round; stroke-linejoin:round;">
</g>
<g style="fill:#009600; fill-opacity:0.0; 
stroke:#009600; stroke-width:60.000000; stroke-opacity:1; 
stroke-linecap:round; stroke-linejoin:round;">
<path d="M28500 17500
L28500 23000
" />
<path d="M29500 16500
L29500 23000
" />
<path d="M32500 11500
L23500 11500
" />
<path d="M23500 17500
L28500 17500
" />
<path d="M32500 11500
L32500 16500
" />
<path d="M23500 16500
L29500 16500
" />
<path d="M29500 15500
L29500 16500
" />
<path d="M28500 17500
L36000 17500
" />
<path d="M32500 16500
L36000 16500
" />
<path d="M29500 15500
L36000 15500
" />
</g>
<g style="fill:#000084; fill-opacity:0.0; 
stroke:#000084; stroke-width:60.000000; stroke-opacity:1; 
stroke-linecap:round; stroke-linejoin:round;">
<path d="M23260 12260
L23740 12740
" />
<path d="M23740 12260
L23260 12740
" />
<path d="M23260 10260
L23740 10740
" />
<path d="M23740 10260
L23260 10740
" />
<path d="M23260 13260
L23740 13740
" />
<path d="M23740 13260
L23260 13740
" />
<path d="M23260 14260
L23740 14740
" />
<path d="M23740 14260
L23260 14740
" />
<path d="M23260 15260
L23740 15740
" />
<path d="M23740 15260
L23260 15740
" />
<path d="M11260 12260
L11740 12740
" />
<path d="M11740 12260
L11260 12740
" />
<path d="M11260 13260
L11740 13740
" />
<path d="M11740 13260
L11260 13740
" />
<path d="M11260 10260
L11740 10740
" />
<path d="M11740 10260
L11260 10740
" />
<path d="M11260 11260
L11740 11740
" />
<path d="M11740 11260
L11260 11740
" />
<path d="M11260 14260
L11740 14740
" />
<path d="M11740 14260
L11260 14740
" />
<path d="M11260 17260
L11740 17740
" />
<path d="M11740 17260
L11260 17740
" />
<path d="M11260 15260
L11740 15740
" />
<path d="M11740 15260
L11260 15740
" />
<path d="M11260 16260
L11740 16740
" />
<path d="M11740 16260
L11260 16740
" />
</g>
<g style="fill:#009600; fill-opacity:0.0; 
stroke:#009600; stroke-width:60.000000; stroke-opacity:1; 
stroke-linecap:round; stroke-linejoin:round;">
</g>
<g style="fill:#009600; fill-opacity:1.0; 
stroke:#009600; stroke-width:60.000000; stroke-opacity:1; 
stroke-linecap:round; stroke-linejoin:round;">
<circle cx="29500.000000" cy="16500.000000" r="180.000000" /> 
<circle cx="28500.000000" cy="17500.000000" r="180.000000" /> 
</g> 
</svg>
